# xmcd
#
# Track frame offsets: 
#        150
#        21112
#        40690
#        61242
#        80642
#        103015
#        122887
#        144992
#        166915
#        182115
#        203280
#        223385
#        241497
#        268457
#        290470
#
# Disc length: 4179 seconds
#
# Revision: 2
# Processed by: cddbd v1.5.2PL0 Copyright (c) Steve Scherf et al.
# Submitted via: ExactAudioCopy v1.0b4
#
DISCID=de10510f
DTITLE=杉田二郎 - 杉田二郎 ザ・ベスト
DYEAR=1994
DGENRE=杉田二郎 ザ・ベスト
TTITLE0=ふぞろいの人生
TTITLE1=再会
TTITLE2=夢のように愛されて
TTITLE3=東京カチート
TTITLE4=おまえに
TTITLE5=モナリザより美しく
TTITLE6=夢よ覚めないで
TTITLE7=ANAK(息子)
TTITLE8=戦争を知らない子供たち
TTITLE9=サマーソング for You
TTITLE10=題名のない愛の唄
TTITLE11=君住む街
TTITLE12=旅立つ女
TTITLE13=男どうし
TTITLE14=八ヶ岳
EXTD=
EXTT0=
EXTT1=
EXTT2=
EXTT3=
EXTT4=
EXTT5=
EXTT6=
EXTT7=
EXTT8=
EXTT9=
EXTT10=
EXTT11=
EXTT12=
EXTT13=
EXTT14=
PLAYORDER=
